<svg font-family="Arial,Helvetica,sans-serif" viewBox="0 0 480 270" fill="none" xmlns="http://www.w3.org/2000/svg" focusable="false" class="canvas"><defs><linearGradient id="agent-art-story-seed-_R_0_-stage" x1="0" y1="0" x2="480" y2="270" gradientUnits="userSpaceOnUse"><stop stop-color="#ecdbc0"></stop><stop offset="1" stop-color="#d8bd94"></stop></linearGradient><linearGradient id="agent-art-story-seed-_R_0_-clay" x1="-31" y1="-65" x2="43" y2="56" gradientUnits="userSpaceOnUse"><stop stop-color="#f4cfac"></stop><stop offset=".45" stop-color="#dfa378"></stop><stop offset="1" stop-color="#ba7758"></stop></linearGradient><linearGradient id="agent-art-story-seed-_R_0_-skin" x1="-34" y1="-41" x2="47" y2="50" gradientUnits="userSpaceOnUse"><stop stop-color="#f4d9b8"></stop><stop offset=".55" stop-color="#eac6a4"></stop><stop offset="1" stop-color="#d9ad8b"></stop></linearGradient><linearGradient id="agent-art-story-seed-_R_0_-gold" x1="0" y1="0" x2="1" y2="1"><stop stop-color="#f7dfa2"></stop><stop offset=".6" stop-color="#e8bb67"></stop><stop offset="1" stop-color="#d89c53"></stop></linearGradient><linearGradient id="agent-art-story-seed-_R_0_-letter" x1="70" y1="79" x2="355" y2="197" gradientUnits="userSpaceOnUse"><stop stop-color="#fff0d2"></stop><stop offset=".48" stop-color="#e5baa3"></stop><stop offset="1" stop-color="#c69098"></stop></linearGradient><linearGradient id="agent-art-story-seed-_R_0_-rim" x1="-29" y1="-10" x2="29" y2="26" gradientUnits="userSpaceOnUse"><stop stop-color="#f0d5b5"></stop><stop offset="1" stop-color="#bd9576"></stop></linearGradient><radialGradient id="agent-art-story-seed-_R_0_-bloom" cx=".8" cy=".1" r=".8"><stop stop-color="#fff2c0" stop-opacity=".6"></stop><stop offset="1" stop-color="#fff2c0" stop-opacity="0"></stop></radialGradient><filter id="agent-art-story-seed-_R_0_-shadow" x="-25%" y="-25%" width="150%" height="160%" color-interpolation-filters="sRGB"><feDropShadow dx="0" dy="5" stdDeviation="5" flood-color="#2a3828" flood-opacity=".12"></feDropShadow></filter><pattern id="agent-art-story-seed-_R_0_-checker" width="16" height="16" patternUnits="userSpaceOnUse"><rect width="16" height="16" fill="#f6f4df"></rect><path d="M0 0h8v8H0Zm8 8h8v8H8Z" fill="#d4dfce"></path></pattern></defs><rect width="480" height="270" fill="url(#agent-art-story-seed-_R_0_-stage)"></rect><circle cx="453" cy="15" r="164" fill="#fff7e7" opacity=".12"></circle><ellipse cx="38" cy="272" rx="209" ry="81" fill="#fff7e7" opacity=".11"></ellipse><ellipse cx="242" cy="235" rx="177" ry="17" fill="#243334" opacity=".1"></ellipse><g class="primary"><path d="M57 183q69-25 181 2 101-29 182-3l-5 48q-87-20-177 4-96-23-176-3Z" fill="#b99374"></path><path d="M60 172q71-29 178 5 95-34 180-7l-7 50q-82-18-173 5-87-24-172-5Z" fill="#fff7e7"></path><path d="M237 178v45m-156-22q61-12 137 3m47-2q73-20 128-3" stroke="#dbcdb6" fill="none" stroke-width="2"></path><path d="M130 185q-21-81 21-116m177 116q31-79-13-117" fill="none" stroke="#86a288" stroke-width="4"></path><ellipse cx="123" cy="137" rx="12" ry="23" fill="#86a288" transform="rotate(-37 123 137)"></ellipse><ellipse cx="329" cy="133" rx="12" ry="23" fill="#a5b58b" transform="rotate(42 329 133)"></ellipse><circle cx="238" cy="68" r="33" fill="url(#agent-art-story-seed-_R_0_-gold)"></circle><ellipse cx="238" cy="68" rx="49" ry="9" fill="none" stroke="#c68d7a" stroke-width="4" transform="rotate(-21 238 68)"></ellipse><g transform="translate(227 138) scale(0.7)"><path d="M-13 35-20 75m31-40 16 39" fill="none" stroke="#5d789a" stroke-width="13" stroke-linecap="round"></path><path d="m-25 77 13 1m14-1 13 1" stroke="#243334" stroke-width="8" stroke-linecap="round"></path><path d="M-22-9q22-9 44 0l7 44h-58Z" fill="#668aa0"></path><path d="M-20-7q20 6 41 0" stroke="#e6af8d" stroke-width="7" fill="none"></path><path d="M-22 0-36 30m58-30 21-32" stroke="#6b8fa4" stroke-width="10" stroke-linecap="round"></path><ellipse cy="-32" rx="26" ry="29" fill="url(#agent-art-story-seed-_R_0_-skin)"></ellipse><path d="M-28-43q0-24 26-24t30 24v7h-56Z" fill="#daa754"></path><path d="M-31-38h65" stroke="#b98a43" stroke-width="8" stroke-linecap="round"></path><circle cx="-9" cy="-26" r="2.8" fill="#243334"></circle><circle cx="9" cy="-26" r="2.8" fill="#243334"></circle><path d="M-7-15q7 6 14 0" fill="none" stroke="#243334" stroke-width="2" stroke-linecap="round"></path><path d="m-17-1 29 37" stroke="#eacb7a" stroke-width="7"></path><rect x="0" y="18" width="26" height="22" rx="5" fill="#eacb7a"></rect><path d="m4 24 9 7 9-7" fill="none" stroke="#8b7748" stroke-width="1.5"></path></g></g><g class="secondary"><path d="M173 32Q173 43 184 43Q173 43 173 54Q173 43 162 43Q173 43 173 32" fill="#fff7e7"></path><path d="M308 75Q308 88 321 88Q308 88 308 101Q308 88 295 88Q308 88 308 75" fill="#fff7e7"></path><g transform="translate(362 52) scale(0.43)"><path d="m-53 10 48-31-17-44L7-34l37-4-22 20 27 30-55-11-41 21Z" fill="#fff7e7"></path><path d="m-53 10 53-14 7-30m-7 30-22-61" fill="none" stroke="#aeb7a6" stroke-width="2"></path><circle cx="26" cy="-27" r="2.5" fill="#243334"></circle><path d="m44-38 13 2-15 5" fill="#d1a76c"></path></g><path d="m98 82 21-4-3 19-22 3Z" fill="#dca5ad"></path><path d="m99 82 9 7 10-11" stroke="#fff7e7" fill="none" stroke-width="1.5"></path></g><text x="240" y="254" fill="#243334" font-size="8" font-weight="650" letter-spacing="1.2" text-anchor="middle">A WORLD HIDING IN YOUR FIRST LINE.</text></svg>